<svg id="Layer_1" data-name="Layer 1" xmlns="http://www.w3.org/2000/svg" viewBox="0 0 1080 1080"><defs><style>.cls-1{fill:#262626;}.cls-2{fill:#85a693;}.cls-3,.cls-4{fill:none;stroke:#85a693;stroke-linecap:round;stroke-linejoin:round;}.cls-3{stroke-width:45px;}.cls-4{stroke-width:44.9px;}</style></defs><title>KM_logo</title><circle class="cls-1" cx="540" cy="540" r="462"/><path class="cls-2" d="M182.15,668.19V406.63h61.91V525.08l96.52-118.45h71.59L308.54,525.8,415.93,668.19H341.37L244.06,531.33V668.19Z"/><path class="cls-2" d="M447.58,643q0-12.87,10-22a36.26,36.26,0,0,1,48.07,0q10,9.12,10,22,0,12.69-9.88,21.53t-24.13,8.84a34.83,34.83,0,0,1-24-8.93Q447.59,655.5,447.58,643Z"/><path class="cls-2" d="M551.41,668.19l44.11-261.56h64.87l55.78,154A118,118,0,0,1,720,574.75q2.09,9.29,3.86,21.26,1.59-12.15,3.56-21.71a90.75,90.75,0,0,1,3.76-14L788,406.63h63.89l44.3,261.56H837.41L816.25,510.43q-2.38-17.51-3.17-26.44t-.79-16.62c0-2.73,0-4.79.1-6.16s.16-2.59.3-3.66q-3,15.36-5.64,26.53A148.51,148.51,0,0,1,802.21,501L740.89,668.19H706.08L645.76,501q-.79-2.31-3.46-12.86t-7.42-30.73v7.68q0,18.22-3.56,44.67l-.2.71-21,157.76Z"/><polyline class="cls-3" points="129.87 646.92 22.5 540.18 129.6 433.08"/><polyline class="cls-4" points="946.69 650.4 1057.55 540.18 946.97 429.6"/></svg>